<mxfile host="app.diagrams.net" modified="2024-06-06T11:18:00.063Z" agent="Mozilla/5.0 (Macintosh; Intel Mac OS X 10_15_7) AppleWebKit/537.36 (KHTML, like Gecko) Chrome/123.0.0.0 Safari/537.36" version="24.4.15" etag="H6iRsPUfSNvak1Fyj7aS" type="github">
  <diagram name="Page-1" id="8C0NyOAccENImT7_GJy_">
    <mxGraphModel>
      <root>
        <mxCell id="0" />
        <mxCell id="1" parent="0" />
      </root>
    </mxGraphModel>
  </diagram>
</mxfile>
